<svg width="90" height="24" viewBox="0 0 90 24" fill="none" xmlns="http://www.w3.org/2000/svg">
<path d="M11.928 13.808H5.256L4.152 17H0.624L6.648 0.223999H10.56L16.584 17H13.032L11.928 13.808ZM11.016 11.12L8.592 4.112L6.168 11.12H11.016ZM22.1957 5.624C22.6277 5.016 23.2197 4.512 23.9717 4.112C24.7397 3.696 25.6117 3.488 26.5877 3.488C27.7237 3.488 28.7477 3.768 29.6597 4.328C30.5877 4.888 31.3157 5.688 31.8437 6.728C32.3877 7.752 32.6597 8.944 32.6597 10.304C32.6597 11.664 32.3877 12.872 31.8437 13.928C31.3157 14.968 30.5877 15.776 29.6597 16.352C28.7477 16.928 27.7237 17.216 26.5877 17.216C25.6117 17.216 24.7477 17.016 23.9957 16.616C23.2597 16.216 22.6597 15.712 22.1957 15.104V23.336H18.8357V3.704H22.1957V5.624ZM29.2277 10.304C29.2277 9.504 29.0597 8.816 28.7237 8.24C28.4037 7.648 27.9717 7.2 27.4277 6.896C26.8997 6.592 26.3237 6.44 25.6997 6.44C25.0917 6.44 24.5157 6.6 23.9717 6.92C23.4437 7.224 23.0117 7.672 22.6757 8.264C22.3557 8.856 22.1957 9.552 22.1957 10.352C22.1957 11.152 22.3557 11.848 22.6757 12.44C23.0117 13.032 23.4437 13.488 23.9717 13.808C24.5157 14.112 25.0917 14.264 25.6997 14.264C26.3237 14.264 26.8997 14.104 27.4277 13.784C27.9717 13.464 28.4037 13.008 28.7237 12.416C29.0597 11.824 29.2277 11.12 29.2277 10.304ZM38.4613 5.624C38.8933 5.016 39.4853 4.512 40.2373 4.112C41.0053 3.696 41.8773 3.488 42.8533 3.488C43.9893 3.488 45.0133 3.768 45.9253 4.328C46.8533 4.888 47.5813 5.688 48.1093 6.728C48.6533 7.752 48.9253 8.944 48.9253 10.304C48.9253 11.664 48.6533 12.872 48.1093 13.928C47.5813 14.968 46.8533 15.776 45.9253 16.352C45.0133 16.928 43.9893 17.216 42.8533 17.216C41.8773 17.216 41.0133 17.016 40.2613 16.616C39.5253 16.216 38.9253 15.712 38.4613 15.104V23.336H35.1013V3.704H38.4613V5.624ZM45.4933 10.304C45.4933 9.504 45.3253 8.816 44.9893 8.24C44.6693 7.648 44.2373 7.2 43.6933 6.896C43.1653 6.592 42.5893 6.44 41.9653 6.44C41.3573 6.44 40.7813 6.6 40.2373 6.92C39.7093 7.224 39.2773 7.672 38.9413 8.264C38.6213 8.856 38.4613 9.552 38.4613 10.352C38.4613 11.152 38.6213 11.848 38.9413 12.44C39.2773 13.032 39.7093 13.488 40.2373 13.808C40.7813 14.112 41.3573 14.264 41.9653 14.264C42.5893 14.264 43.1653 14.104 43.6933 13.784C44.2373 13.464 44.6693 13.008 44.9893 12.416C45.3253 11.824 45.4933 11.12 45.4933 10.304ZM50.5029 10.304C50.5029 8.96 50.7669 7.768 51.2949 6.728C51.8389 5.688 52.5669 4.888 53.4789 4.328C54.4069 3.768 55.4389 3.488 56.5749 3.488C57.5669 3.488 58.4309 3.688 59.1669 4.088C59.9189 4.488 60.5189 4.992 60.9669 5.6V3.704H64.3509V17H60.9669V15.056C60.5349 15.68 59.9349 16.2 59.1669 16.616C58.4149 17.016 57.5429 17.216 56.5509 17.216C55.4309 17.216 54.4069 16.928 53.4789 16.352C52.5669 15.776 51.8389 14.968 51.2949 13.928C50.7669 12.872 50.5029 11.664 50.5029 10.304ZM60.9669 10.352C60.9669 9.536 60.8069 8.84 60.4869 8.264C60.1669 7.672 59.7349 7.224 59.1909 6.92C58.6469 6.6 58.0629 6.44 57.4389 6.44C56.8149 6.44 56.2389 6.592 55.7109 6.896C55.1829 7.2 54.7509 7.648 54.4149 8.24C54.0949 8.816 53.9349 9.504 53.9349 10.304C53.9349 11.104 54.0949 11.808 54.4149 12.416C54.7509 13.008 55.1829 13.464 55.7109 13.784C56.2549 14.104 56.8309 14.264 57.4389 14.264C58.0629 14.264 58.6469 14.112 59.1909 13.808C59.7349 13.488 60.1669 13.04 60.4869 12.464C60.8069 11.872 60.9669 11.168 60.9669 10.352ZM84.1446 3.512C85.7766 3.512 87.0886 4.016 88.0806 5.024C89.0886 6.016 89.5926 7.408 89.5926 9.2V17H86.2326V9.656C86.2326 8.616 85.9686 7.824 85.4406 7.28C84.9126 6.72 84.1926 6.44 83.2806 6.44C82.3686 6.44 81.6406 6.72 81.0966 7.28C80.5686 7.824 80.3046 8.616 80.3046 9.656V17H76.9446V9.656C76.9446 8.616 76.6806 7.824 76.1526 7.28C75.6246 6.72 74.9046 6.44 73.9926 6.44C73.0646 6.44 72.3286 6.72 71.7846 7.28C71.2566 7.824 70.9926 8.616 70.9926 9.656V17H67.6326V3.704H70.9926V5.312C71.4246 4.752 71.9766 4.312 72.6486 3.992C73.3366 3.672 74.0886 3.512 74.9046 3.512C75.9446 3.512 76.8726 3.736 77.6886 4.184C78.5046 4.616 79.1366 5.24 79.5846 6.056C80.0166 5.288 80.6406 4.672 81.4566 4.208C82.2886 3.744 83.1846 3.512 84.1446 3.512Z" fill="black"/>
</svg>
