<svg width="108" height="36" viewBox="0 0 108 36" fill="none" xmlns="http://www.w3.org/2000/svg">
<path d="M41.872 14.432C41.872 15.328 41.656 16.168 41.224 16.952C40.808 17.736 40.144 18.368 39.232 18.848C38.336 19.328 37.2 19.568 35.824 19.568H33.016V26H29.656V9.248H35.824C37.12 9.248 38.224 9.472 39.136 9.92C40.048 10.368 40.728 10.984 41.176 11.768C41.64 12.552 41.872 13.44 41.872 14.432ZM35.68 16.856C36.608 16.856 37.296 16.648 37.744 16.232C38.192 15.8 38.416 15.2 38.416 14.432C38.416 12.8 37.504 11.984 35.68 11.984H33.016V16.856H35.68ZM43.3936 19.304C43.3936 17.96 43.6576 16.768 44.1856 15.728C44.7296 14.688 45.4576 13.888 46.3696 13.328C47.2976 12.768 48.3296 12.488 49.4656 12.488C50.4576 12.488 51.3216 12.688 52.0576 13.088C52.8096 13.488 53.4096 13.992 53.8576 14.6V12.704H57.2416V26H53.8576V24.056C53.4256 24.68 52.8256 25.2 52.0576 25.616C51.3056 26.016 50.4336 26.216 49.4416 26.216C48.3216 26.216 47.2976 25.928 46.3696 25.352C45.4576 24.776 44.7296 23.968 44.1856 22.928C43.6576 21.872 43.3936 20.664 43.3936 19.304ZM53.8576 19.352C53.8576 18.536 53.6976 17.84 53.3776 17.264C53.0576 16.672 52.6256 16.224 52.0816 15.92C51.5376 15.6 50.9536 15.44 50.3296 15.44C49.7056 15.44 49.1296 15.592 48.6016 15.896C48.0736 16.2 47.6416 16.648 47.3056 17.24C46.9856 17.816 46.8256 18.504 46.8256 19.304C46.8256 20.104 46.9856 20.808 47.3056 21.416C47.6416 22.008 48.0736 22.464 48.6016 22.784C49.1456 23.104 49.7216 23.264 50.3296 23.264C50.9536 23.264 51.5376 23.112 52.0816 22.808C52.6256 22.488 53.0576 22.04 53.3776 21.464C53.6976 20.872 53.8576 20.168 53.8576 19.352ZM64.4352 15.464V21.896C64.4352 22.344 64.5392 22.672 64.7472 22.88C64.9712 23.072 65.3392 23.168 65.8512 23.168H67.4112V26H65.2992C62.4672 26 61.0512 24.624 61.0512 21.872V15.464H59.4672V12.704H61.0512V9.416H64.4352V12.704H67.4112V15.464H64.4352ZM77.3159 12.512C78.3239 12.512 79.2199 12.736 80.0039 13.184C80.7879 13.616 81.3959 14.264 81.8279 15.128C82.2759 15.976 82.4999 17 82.4999 18.2V26H79.1399V18.656C79.1399 17.6 78.8759 16.792 78.3479 16.232C77.8199 15.656 77.0999 15.368 76.1879 15.368C75.2599 15.368 74.5239 15.656 73.9799 16.232C73.4519 16.792 73.1879 17.6 73.1879 18.656V26H69.8279V8.24H73.1879V14.36C73.6199 13.784 74.1959 13.336 74.9159 13.016C75.6359 12.68 76.4359 12.512 77.3159 12.512ZM87.3991 11.12C86.8071 11.12 86.3111 10.936 85.9111 10.568C85.5271 10.184 85.3351 9.712 85.3351 9.152C85.3351 8.592 85.5271 8.128 85.9111 7.76C86.3111 7.376 86.8071 7.184 87.3991 7.184C87.9911 7.184 88.4791 7.376 88.8631 7.76C89.2631 8.128 89.4631 8.592 89.4631 9.152C89.4631 9.712 89.2631 10.184 88.8631 10.568C88.4791 10.936 87.9911 11.12 87.3991 11.12ZM89.0551 12.704V26H85.6951V12.704H89.0551ZM95.7348 14.768C96.1668 14.064 96.7268 13.512 97.4148 13.112C98.1188 12.712 98.9188 12.512 99.8148 12.512V16.04H98.9268C97.8708 16.04 97.0708 16.288 96.5268 16.784C95.9988 17.28 95.7348 18.144 95.7348 19.376V26H92.3748V12.704H95.7348V14.768ZM103.782 11.12C103.19 11.12 102.694 10.936 102.294 10.568C101.91 10.184 101.718 9.712 101.718 9.152C101.718 8.592 101.91 8.128 102.294 7.76C102.694 7.376 103.19 7.184 103.782 7.184C104.374 7.184 104.862 7.376 105.246 7.76C105.646 8.128 105.846 8.592 105.846 9.152C105.846 9.712 105.646 10.184 105.246 10.568C104.862 10.936 104.374 11.12 103.782 11.12ZM105.438 12.704V26H102.078V12.704H105.438Z" fill="black"/>
<path d="M18.6371 20.8392C19.433 24.2271 16.5399 28.0088 11.8489 29.1108C7.15798 30.2129 2.88356 28.115 2.08765 24.727C1.29173 21.3391 4.18489 17.5574 8.87582 16.4554C13.5668 15.3533 17.8412 17.4512 18.6371 20.8392Z" fill="white" stroke="#D6D6D6"/>
<path d="M20.1713 15.884C20.9672 19.272 18.074 23.0537 13.3831 24.1557C8.69216 25.2577 4.41774 23.1599 3.62183 19.7719C2.82591 16.384 5.71907 12.6023 10.41 11.5002C15.1009 10.3982 19.3754 12.4961 20.1713 15.884Z" fill="white" stroke="#D6D6D6"/>
<path d="M21.7054 10.9288C22.5013 14.3168 19.6082 18.0985 14.9172 19.2005C10.2263 20.3025 5.95186 18.2047 5.15594 14.8167C4.36003 11.4288 7.25319 7.64705 11.9441 6.54503C16.6351 5.44301 20.9095 7.54086 21.7054 10.9288Z" fill="white" stroke="#D6D6D6"/>
</svg>
